{
  "accessors": [
    {
      "bufferView": 0,
      "byteOffset": 0,
      "componentType": 5125,
      "count": 72,
      "max": [
        15
      ],
      "min": [
        0
      ],
      "normalized": false,
      "type": "SCALAR"
    },
    {
      "bufferView": 1,
      "byteOffset": 0,
      "componentType": 5126,
      "count": 16,
      "max": [
        4.269990000000001,
        2.15999,
        6.6311
      ],
      "min": [
        1.25001,
        0.56001,
        5.371
      ],
      "normalized": false,
      "type": "VEC3"
    },
    {
      "bufferView": 2,
      "byteOffset": 0,
      "componentType": 5125,
      "count": 72,
      "max": [
        15
      ],
      "min": [
        0
      ],
      "normalized": false,
      "type": "SCALAR"
    },
    {
      "bufferView": 3,
      "byteOffset": 0,
      "componentType": 5126,
      "count": 16,
      "max": [
        4.149990000000001,
        1.8599899999999998,
        4.8661
      ],
      "min": [
        1.3700100000000002,
        0.68001,
        4.0211
      ],
      "normalized": false,
      "type": "VEC3"
    },
    {
      "bufferView": 4,
      "byteOffset": 0,
      "componentType": 5125,
      "count": 144,
      "max": [
        31
      ],
      "min": [
        0
      ],
      "normalized": false,
      "type": "SCALAR"
    },
    {
      "bufferView": 5,
      "byteOffset": 0,
      "componentType": 5126,
      "count": 32,
      "max": [
        4.17499,
        1.35499,
        3.631
      ],
      "min": [
        3.39501,
        1.02501,
        2.786
      ],
      "normalized": false,
      "type": "VEC3"
    },
    {
      "bufferView": 6,
      "byteOffset": 0,
      "componentType": 5125,
      "count": 72,
      "max": [
        15
      ],
      "min": [
        0
      ],
      "normalized": false,
      "type": "SCALAR"
    },
    {
      "bufferView": 7,
      "byteOffset": 0,
      "componentType": 5126,
      "count": 16,
      "max": [
        4.12499,
        1.37499,
        2.36
      ],
      "min": [
        3.4450100000000003,
        1.00501,
        2.0
      ],
      "normalized": false,
      "type": "VEC3"
    },
    {
      "bufferView": 8,
      "byteOffset": 0,
      "componentType": 5125,
      "count": 144,
      "max": [
        31
      ],
      "min": [
        0
      ],
      "normalized": false,
      "type": "SCALAR"
    },
    {
      "bufferView": 9,
      "byteOffset": 0,
      "componentType": 5126,
      "count": 32,
      "max": [
        5.519990000000001,
        2.95999,
        1.736
      ],
      "min": [
        1e-05,
        -0.23998999999999998,
        1.376
      ],
      "normalized": false,
      "type": "VEC3"
    },
    {
      "bufferView": 10,
      "byteOffset": 0,
      "componentType": 5125,
      "count": 72,
      "max": [
        15
      ],
      "min": [
        0
      ],
      "normalized": false,
      "type": "SCALAR"
    },
    {
      "bufferView": 11,
      "byteOffset": 0,
      "componentType": 5126,
      "count": 16,
      "max": [
        4.019990000000001,
        1.26499,
        2.0
      ],
      "min": [
        3.5500100000000003,
        1.11501,
        1.736
      ],
      "normalized": false,
      "type": "VEC3"
    },
    {
      "bufferView": 12,
      "byteOffset": 0,
      "componentType": 5125,
      "count": 72,
      "max": [
        15
      ],
      "min": [
        0
      ],
      "normalized": false,
      "type": "SCALAR"
    },
    {
      "bufferView": 13,
      "byteOffset": 0,
      "componentType": 5126,
      "count": 16,
      "max": [
        4.08499,
        1.28999,
        4.0211
      ],
      "min": [
        3.48501,
        1.0900100000000001,
        3.631
      ],
      "normalized": false,
      "type": "VEC3"
    },
    {
      "bufferView": 14,
      "byteOffset": 0,
      "componentType": 5125,
      "count": 72,
      "max": [
        15
      ],
      "min": [
        0
      ],
      "normalized": false,
      "type": "SCALAR"
    },
    {
      "bufferView": 15,
      "byteOffset": 0,
      "componentType": 5126,
      "count": 16,
      "max": [
        4.08499,
        1.28999,
        2.786
      ],
      "min": [
        3.48501,
        1.0900100000000001,
        2.36
      ],
      "normalized": false,
      "type": "VEC3"
    },
    {
      "bufferView": 16,
      "byteOffset": 0,
      "componentType": 5125,
      "count": 72,
      "max": [
        15
      ],
      "min": [
        0
      ],
      "normalized": false,
      "type": "SCALAR"
    },
    {
      "bufferView": 17,
      "byteOffset": 0,
      "componentType": 5126,
      "count": 16,
      "max": [
        3.95999,
        1.6699899999999999,
        5.371
      ],
      "min": [
        1.5600100000000001,
        0.87001,
        4.8661
      ],
      "normalized": false,
      "type": "VEC3"
    },
    {
      "bufferView": 18,
      "byteOffset": 0,
      "componentType": 5125,
      "count": 936,
      "max": [
        207
      ],
      "min": [
        0
      ],
      "normalized": false,
      "type": "SCALAR"
    },
    {
      "bufferView": 19,
      "byteOffset": 0,
      "componentType": 5126,
      "count": 208,
      "max": [
        5.37499,
        2.80499,
        1.376
      ],
      "min": [
        0.14501,
        -0.08499000000000001,
        1.011
      ],
      "normalized": false,
      "type": "VEC3"
    },
    {
      "bufferView": 20,
      "byteOffset": 0,
      "componentType": 5125,
      "count": 1380,
      "max": [
        239
      ],
      "min": [
        0
      ],
      "normalized": false,
      "type": "SCALAR"
    },
    {
      "bufferView": 21,
      "byteOffset": 0,
      "componentType": 5126,
      "count": 240,
      "max": [
        5.519990000000001,
        2.80499,
        1.136
      ],
      "min": [
        1e-05,
        -0.08499000000000001,
        0.936
      ],
      "normalized": false,
      "type": "VEC3"
    },
    {
      "bufferView": 22,
      "byteOffset": 0,
      "componentType": 5125,
      "count": 984,
      "max": [
        167
      ],
      "min": [
        0
      ],
      "normalized": false,
      "type": "SCALAR"
    },
    {
      "bufferView": 23,
      "byteOffset": 0,
      "componentType": 5126,
      "count": 168,
      "max": [
        4.7449900000000005,
        2.61499,
        0.18
      ],
      "min": [
        0.14001000000000002,
        0.10500999999999999,
        0.0
      ],
      "normalized": false,
      "type": "VEC3"
    },
    {
      "bufferView": 24,
      "byteOffset": 0,
      "componentType": 5125,
      "count": 1800,
      "max": [
        399
      ],
      "min": [
        0
      ],
      "normalized": false,
      "type": "SCALAR"
    },
    {
      "bufferView": 25,
      "byteOffset": 0,
      "componentType": 5126,
      "count": 400,
      "max": [
        4.96499,
        2.42499,
        0.936
      ],
      "min": [
        0.17501000000000003,
        0.29501,
        0.0
      ],
      "normalized": false,
      "type": "VEC3"
    },
    {
      "bufferView": 26,
      "byteOffset": 0,
      "componentType": 5125,
      "count": 36,
      "max": [
        7
      ],
      "min": [
        0
      ],
      "normalized": false,
      "type": "SCALAR"
    },
    {
      "bufferView": 27,
      "byteOffset": 0,
      "componentType": 5126,
      "count": 8,
      "max": [
        5.70999,
        2.90999,
        0.01
      ],
      "min": [
        -0.18999,
        1.30501,
        -0.5
      ],
      "normalized": false,
      "type": "VEC3"
    },
    {
      "bufferView": 28,
      "byteOffset": 0,
      "componentType": 5125,
      "count": 72,
      "max": [
        15
      ],
      "min": [
        0
      ],
      "normalized": false,
      "type": "SCALAR"
    },
    {
      "bufferView": 29,
      "byteOffset": 0,
      "componentType": 5126,
      "count": 16,
      "max": [
        5.00499,
        2.48499,
        0.02
      ],
      "min": [
        0.13501000000000002,
        0.23501000000000002,
        -0.12
      ],
      "normalized": false,
      "type": "VEC3"
    }
  ],
  "asset": {
    "generator": "pygltflib@v1.15.3",
    "version": "2.0"
  },
  "bufferViews": [
    {
      "buffer": 0,
      "byteLength": 288,
      "byteOffset": 0,
      "target": 34963
    },
    {
      "buffer": 0,
      "byteLength": 192,
      "byteOffset": 288,
      "target": 34962
    },
    {
      "buffer": 0,
      "byteLength": 288,
      "byteOffset": 480,
      "target": 34963
    },
    {
      "buffer": 0,
      "byteLength": 192,
      "byteOffset": 768,
      "target": 34962
    },
    {
      "buffer": 0,
      "byteLength": 576,
      "byteOffset": 960,
      "target": 34963
    },
    {
      "buffer": 0,
      "byteLength": 384,
      "byteOffset": 1536,
      "target": 34962
    },
    {
      "buffer": 0,
      "byteLength": 288,
      "byteOffset": 1920,
      "target": 34963
    },
    {
      "buffer": 0,
      "byteLength": 192,
      "byteOffset": 2208,
      "target": 34962
    },
    {
      "buffer": 0,
      "byteLength": 576,
      "byteOffset": 2400,
      "target": 34963
    },
    {
      "buffer": 0,
      "byteLength": 384,
      "byteOffset": 2976,
      "target": 34962
    },
    {
      "buffer": 0,
      "byteLength": 288,
      "byteOffset": 3360,
      "target": 34963
    },
    {
      "buffer": 0,
      "byteLength": 192,
      "byteOffset": 3648,
      "target": 34962
    },
    {
      "buffer": 0,
      "byteLength": 288,
      "byteOffset": 3840,
      "target": 34963
    },
    {
      "buffer": 0,
      "byteLength": 192,
      "byteOffset": 4128,
      "target": 34962
    },
    {
      "buffer": 0,
      "byteLength": 288,
      "byteOffset": 4320,
      "target": 34963
    },
    {
      "buffer": 0,
      "byteLength": 192,
      "byteOffset": 4608,
      "target": 34962
    },
    {
      "buffer": 0,
      "byteLength": 288,
      "byteOffset": 4800,
      "target": 34963
    },
    {
      "buffer": 0,
      "byteLength": 192,
      "byteOffset": 5088,
      "target": 34962
    },
    {
      "buffer": 0,
      "byteLength": 3744,
      "byteOffset": 5280,
      "target": 34963
    },
    {
      "buffer": 0,
      "byteLength": 2496,
      "byteOffset": 9024,
      "target": 34962
    },
    {
      "buffer": 0,
      "byteLength": 5520,
      "byteOffset": 11520,
      "target": 34963
    },
    {
      "buffer": 0,
      "byteLength": 2880,
      "byteOffset": 17040,
      "target": 34962
    },
    {
      "buffer": 0,
      "byteLength": 3936,
      "byteOffset": 19920,
      "target": 34963
    },
    {
      "buffer": 0,
      "byteLength": 2016,
      "byteOffset": 23856,
      "target": 34962
    },
    {
      "buffer": 0,
      "byteLength": 7200,
      "byteOffset": 25872,
      "target": 34963
    },
    {
      "buffer": 0,
      "byteLength": 4800,
      "byteOffset": 33072,
      "target": 34962
    },
    {
      "buffer": 0,
      "byteLength": 144,
      "byteOffset": 37872,
      "target": 34963
    },
    {
      "buffer": 0,
      "byteLength": 96,
      "byteOffset": 38016,
      "target": 34962
    },
    {
      "buffer": 0,
      "byteLength": 288,
      "byteOffset": 38112,
      "target": 34963
    },
    {
      "buffer": 0,
      "byteLength": 192,
      "byteOffset": 38400,
      "target": 34962
    }
  ],
  "buffers": [
    {
      "byteLength": 38592,
      "uri": "data:application/octet-stream;base64,"
    }
  ],
  "materials": [
    {
      "alphaCutoff": 0.5,
      "alphaMode": "OPAQUE",
      "doubleSided": false,
      "emissiveFactor": [
        0.0,
        0.0,
        0.0
      ],
      "name": "substrate",
      "pbrMetallicRoughness": {
        "baseColorFactor": [
          0.2,
          0.2,
          0.2,
          1.0
        ],
        "metallicFactor": 0.5,
        "roughnessFactor": 0.5
      }
    },
    {
      "alphaCutoff": 0.5,
      "alphaMode": "OPAQUE",
      "doubleSided": false,
      "emissiveFactor": [
        0.0,
        0.0,
        0.0
      ],
      "name": "nwell",
      "pbrMetallicRoughness": {
        "baseColorFactor": [
          0.4,
          0.4,
          0.4,
          1.0
        ],
        "metallicFactor": 0.5,
        "roughnessFactor": 0.5
      }
    },
    {
      "alphaCutoff": 0.5,
      "alphaMode": "OPAQUE",
      "doubleSided": false,
      "emissiveFactor": [
        0.0,
        0.0,
        0.0
      ],
      "name": "diff",
      "pbrMetallicRoughness": {
        "baseColorFactor": [
          0.9,
          0.9,
          0.9,
          1.0
        ],
        "metallicFactor": 0.5,
        "roughnessFactor": 0.5
      }
    },
    {
      "alphaCutoff": 0.5,
      "alphaMode": "OPAQUE",
      "doubleSided": false,
      "emissiveFactor": [
        0.0,
        0.0,
        0.0
      ],
      "name": "poly",
      "pbrMetallicRoughness": {
        "baseColorFactor": [
          0.75,
          0.35,
          0.46,
          1.0
        ],
        "metallicFactor": 0.5,
        "roughnessFactor": 0.5
      }
    },
    {
      "alphaCutoff": 0.5,
      "alphaMode": "OPAQUE",
      "doubleSided": false,
      "emissiveFactor": [
        0.0,
        0.0,
        0.0
      ],
      "name": "licon",
      "pbrMetallicRoughness": {
        "baseColorFactor": [
          0.2,
          0.2,
          0.2,
          1.0
        ],
        "metallicFactor": 0.5,
        "roughnessFactor": 0.5
      }
    },
    {
      "alphaCutoff": 0.5,
      "alphaMode": "OPAQUE",
      "doubleSided": false,
      "emissiveFactor": [
        0.0,
        0.0,
        0.0
      ],
      "name": "li1",
      "pbrMetallicRoughness": {
        "baseColorFactor": [
          1.0,
          0.81,
          0.55,
          1.0
        ],
        "metallicFactor": 0.5,
        "roughnessFactor": 0.5
      }
    },
    {
      "alphaCutoff": 0.5,
      "alphaMode": "OPAQUE",
      "doubleSided": false,
      "emissiveFactor": [
        0.0,
        0.0,
        0.0
      ],
      "name": "mcon",
      "pbrMetallicRoughness": {
        "baseColorFactor": [
          0.2,
          0.2,
          0.2,
          1.0
        ],
        "metallicFactor": 0.5,
        "roughnessFactor": 0.5
      }
    },
    {
      "alphaCutoff": 0.5,
      "alphaMode": "OPAQUE",
      "doubleSided": false,
      "emissiveFactor": [
        0.0,
        0.0,
        0.0
      ],
      "name": "met1",
      "pbrMetallicRoughness": {
        "baseColorFactor": [
          0.16,
          0.38,
          0.83,
          1.0
        ],
        "metallicFactor": 0.5,
        "roughnessFactor": 0.5
      }
    },
    {
      "alphaCutoff": 0.5,
      "alphaMode": "OPAQUE",
      "doubleSided": false,
      "emissiveFactor": [
        0.0,
        0.0,
        0.0
      ],
      "name": "via",
      "pbrMetallicRoughness": {
        "baseColorFactor": [
          0.2,
          0.2,
          0.2,
          1.0
        ],
        "metallicFactor": 0.5,
        "roughnessFactor": 0.5
      }
    },
    {
      "alphaCutoff": 0.5,
      "alphaMode": "OPAQUE",
      "doubleSided": false,
      "emissiveFactor": [
        0.0,
        0.0,
        0.0
      ],
      "name": "met2",
      "pbrMetallicRoughness": {
        "baseColorFactor": [
          0.65,
          0.75,
          0.9,
          1.0
        ],
        "metallicFactor": 0.5,
        "roughnessFactor": 0.5
      }
    },
    {
      "alphaCutoff": 0.5,
      "alphaMode": "OPAQUE",
      "doubleSided": false,
      "emissiveFactor": [
        0.0,
        0.0,
        0.0
      ],
      "name": "via2",
      "pbrMetallicRoughness": {
        "baseColorFactor": [
          0.2,
          0.2,
          0.2,
          1.0
        ],
        "metallicFactor": 0.5,
        "roughnessFactor": 0.5
      }
    },
    {
      "alphaCutoff": 0.5,
      "alphaMode": "OPAQUE",
      "doubleSided": false,
      "emissiveFactor": [
        0.0,
        0.0,
        0.0
      ],
      "name": "met3",
      "pbrMetallicRoughness": {
        "baseColorFactor": [
          0.2,
          0.62,
          0.86,
          1.0
        ],
        "metallicFactor": 0.5,
        "roughnessFactor": 0.5
      }
    },
    {
      "alphaCutoff": 0.5,
      "alphaMode": "OPAQUE",
      "doubleSided": false,
      "emissiveFactor": [
        0.0,
        0.0,
        0.0
      ],
      "name": "via3",
      "pbrMetallicRoughness": {
        "baseColorFactor": [
          0.2,
          0.2,
          0.2,
          1.0
        ],
        "metallicFactor": 0.5,
        "roughnessFactor": 0.5
      }
    },
    {
      "alphaCutoff": 0.5,
      "alphaMode": "OPAQUE",
      "doubleSided": false,
      "emissiveFactor": [
        0.0,
        0.0,
        0.0
      ],
      "name": "met4",
      "pbrMetallicRoughness": {
        "baseColorFactor": [
          0.15,
          0.11,
          0.38,
          1.0
        ],
        "metallicFactor": 0.5,
        "roughnessFactor": 0.5
      }
    },
    {
      "alphaCutoff": 0.5,
      "alphaMode": "OPAQUE",
      "doubleSided": false,
      "emissiveFactor": [
        0.0,
        0.0,
        0.0
      ],
      "name": "via4",
      "pbrMetallicRoughness": {
        "baseColorFactor": [
          0.2,
          0.2,
          0.2,
          1.0
        ],
        "metallicFactor": 0.5,
        "roughnessFactor": 0.5
      }
    },
    {
      "alphaCutoff": 0.5,
      "alphaMode": "OPAQUE",
      "doubleSided": false,
      "emissiveFactor": [
        0.0,
        0.0,
        0.0
      ],
      "name": "met5",
      "pbrMetallicRoughness": {
        "baseColorFactor": [
          0.4,
          0.4,
          0.4,
          1.0
        ],
        "metallicFactor": 0.5,
        "roughnessFactor": 0.5
      }
    }
  ],
  "meshes": [
    {
      "primitives": [
        {
          "attributes": {
            "POSITION": 1
          },
          "indices": 0,
          "material": 15,
          "mode": 4
        }
      ]
    },
    {
      "primitives": [
        {
          "attributes": {
            "POSITION": 3
          },
          "indices": 2,
          "material": 13,
          "mode": 4
        }
      ]
    },
    {
      "primitives": [
        {
          "attributes": {
            "POSITION": 5
          },
          "indices": 4,
          "material": 11,
          "mode": 4
        }
      ]
    },
    {
      "primitives": [
        {
          "attributes": {
            "POSITION": 7
          },
          "indices": 6,
          "material": 9,
          "mode": 4
        }
      ]
    },
    {
      "primitives": [
        {
          "attributes": {
            "POSITION": 9
          },
          "indices": 8,
          "material": 7,
          "mode": 4
        }
      ]
    },
    {
      "primitives": [
        {
          "attributes": {
            "POSITION": 11
          },
          "indices": 10,
          "material": 8,
          "mode": 4
        }
      ]
    },
    {
      "primitives": [
        {
          "attributes": {
            "POSITION": 13
          },
          "indices": 12,
          "material": 12,
          "mode": 4
        }
      ]
    },
    {
      "primitives": [
        {
          "attributes": {
            "POSITION": 15
          },
          "indices": 14,
          "material": 10,
          "mode": 4
        }
      ]
    },
    {
      "primitives": [
        {
          "attributes": {
            "POSITION": 17
          },
          "indices": 16,
          "material": 14,
          "mode": 4
        }
      ]
    },
    {
      "primitives": [
        {
          "attributes": {
            "POSITION": 19
          },
          "indices": 18,
          "material": 6,
          "mode": 4
        }
      ]
    },
    {
      "primitives": [
        {
          "attributes": {
            "POSITION": 21
          },
          "indices": 20,
          "material": 5,
          "mode": 4
        }
      ]
    },
    {
      "primitives": [
        {
          "attributes": {
            "POSITION": 23
          },
          "indices": 22,
          "material": 3,
          "mode": 4
        }
      ]
    },
    {
      "primitives": [
        {
          "attributes": {
            "POSITION": 25
          },
          "indices": 24,
          "material": 4,
          "mode": 4
        }
      ]
    },
    {
      "primitives": [
        {
          "attributes": {
            "POSITION": 27
          },
          "indices": 26,
          "material": 1,
          "mode": 4
        }
      ]
    },
    {
      "primitives": [
        {
          "attributes": {
            "POSITION": 29
          },
          "indices": 28,
          "material": 2,
          "mode": 4
        }
      ]
    }
  ],
  "nodes": [
    {
      "children": [
        1,
        2,
        3,
        4,
        5,
        6,
        7,
        8,
        9,
        10,
        11,
        12,
        13,
        14,
        15
      ],
      "name": "sky130_fd_sc_hd__probe_p_8"
    },
    {
      "mesh": 13,
      "name": "sky130_fd_sc_hd__probe_p_8_nwell"
    },
    {
      "mesh": 14,
      "name": "sky130_fd_sc_hd__probe_p_8_diff"
    },
    {
      "mesh": 11,
      "name": "sky130_fd_sc_hd__probe_p_8_poly"
    },
    {
      "mesh": 12,
      "name": "sky130_fd_sc_hd__probe_p_8_licon"
    },
    {
      "mesh": 10,
      "name": "sky130_fd_sc_hd__probe_p_8_li1"
    },
    {
      "mesh": 9,
      "name": "sky130_fd_sc_hd__probe_p_8_mcon"
    },
    {
      "mesh": 4,
      "name": "sky130_fd_sc_hd__probe_p_8_met1"
    },
    {
      "mesh": 5,
      "name": "sky130_fd_sc_hd__probe_p_8_via"
    },
    {
      "mesh": 3,
      "name": "sky130_fd_sc_hd__probe_p_8_met2"
    },
    {
      "mesh": 7,
      "name": "sky130_fd_sc_hd__probe_p_8_via2"
    },
    {
      "mesh": 2,
      "name": "sky130_fd_sc_hd__probe_p_8_met3"
    },
    {
      "mesh": 6,
      "name": "sky130_fd_sc_hd__probe_p_8_via3"
    },
    {
      "mesh": 1,
      "name": "sky130_fd_sc_hd__probe_p_8_met4"
    },
    {
      "mesh": 8,
      "name": "sky130_fd_sc_hd__probe_p_8_via4"
    },
    {
      "mesh": 0,
      "name": "sky130_fd_sc_hd__probe_p_8_met5"
    }
  ],
  "scene": 0,
  "scenes": [
    {
      "nodes": [
        0
      ]
    }
  ]
}