{
  "accessors": [
    {
      "bufferView": 0,
      "byteOffset": 0,
      "componentType": 5125,
      "count": 72,
      "max": [
        15
      ],
      "min": [
        0
      ],
      "normalized": false,
      "type": "SCALAR"
    },
    {
      "bufferView": 1,
      "byteOffset": 0,
      "componentType": 5126,
      "count": 16,
      "max": [
        10.119990000000001,
        2.95999,
        1.736
      ],
      "min": [
        1e-05,
        -0.23998999999999998,
        1.376
      ],
      "normalized": false,
      "type": "VEC3"
    },
    {
      "bufferView": 2,
      "byteOffset": 0,
      "componentType": 5125,
      "count": 2064,
      "max": [
        367
      ],
      "min": [
        0
      ],
      "normalized": false,
      "type": "SCALAR"
    },
    {
      "bufferView": 3,
      "byteOffset": 0,
      "componentType": 5126,
      "count": 368,
      "max": [
        10.119990000000001,
        2.80499,
        1.136
      ],
      "min": [
        1e-05,
        -0.08499000000000001,
        0.936
      ],
      "normalized": false,
      "type": "VEC3"
    },
    {
      "bufferView": 4,
      "byteOffset": 0,
      "componentType": 5125,
      "count": 1584,
      "max": [
        351
      ],
      "min": [
        0
      ],
      "normalized": false,
      "type": "SCALAR"
    },
    {
      "bufferView": 5,
      "byteOffset": 0,
      "componentType": 5126,
      "count": 352,
      "max": [
        9.97499,
        2.80499,
        1.376
      ],
      "min": [
        0.14501,
        -0.08499000000000001,
        1.011
      ],
      "normalized": false,
      "type": "VEC3"
    },
    {
      "bufferView": 6,
      "byteOffset": 0,
      "componentType": 5125,
      "count": 36,
      "max": [
        7
      ],
      "min": [
        0
      ],
      "normalized": false,
      "type": "SCALAR"
    },
    {
      "bufferView": 7,
      "byteOffset": 0,
      "componentType": 5126,
      "count": 8,
      "max": [
        10.30999,
        2.90999,
        0.01
      ],
      "min": [
        -0.18999,
        1.30501,
        -0.5
      ],
      "normalized": false,
      "type": "VEC3"
    },
    {
      "bufferView": 8,
      "byteOffset": 0,
      "componentType": 5125,
      "count": 144,
      "max": [
        31
      ],
      "min": [
        0
      ],
      "normalized": false,
      "type": "SCALAR"
    },
    {
      "bufferView": 9,
      "byteOffset": 0,
      "componentType": 5126,
      "count": 32,
      "max": [
        9.93499,
        2.48499,
        0.02
      ],
      "min": [
        0.13501000000000002,
        0.23501000000000002,
        -0.12
      ],
      "normalized": false,
      "type": "VEC3"
    },
    {
      "bufferView": 10,
      "byteOffset": 0,
      "componentType": 5125,
      "count": 1764,
      "max": [
        303
      ],
      "min": [
        0
      ],
      "normalized": false,
      "type": "SCALAR"
    },
    {
      "bufferView": 11,
      "byteOffset": 0,
      "componentType": 5126,
      "count": 304,
      "max": [
        9.879990000000001,
        2.61499,
        0.18
      ],
      "min": [
        0.11001,
        0.10500999999999999,
        0.0
      ],
      "normalized": false,
      "type": "VEC3"
    },
    {
      "bufferView": 12,
      "byteOffset": 0,
      "componentType": 5125,
      "count": 3528,
      "max": [
        783
      ],
      "min": [
        0
      ],
      "normalized": false,
      "type": "SCALAR"
    },
    {
      "bufferView": 13,
      "byteOffset": 0,
      "componentType": 5126,
      "count": 784,
      "max": [
        9.89499,
        2.42499,
        0.936
      ],
      "min": [
        0.17501000000000003,
        0.29501,
        0.0
      ],
      "normalized": false,
      "type": "VEC3"
    }
  ],
  "asset": {
    "generator": "pygltflib@v1.15.3",
    "version": "2.0"
  },
  "bufferViews": [
    {
      "buffer": 0,
      "byteLength": 288,
      "byteOffset": 0,
      "target": 34963
    },
    {
      "buffer": 0,
      "byteLength": 192,
      "byteOffset": 288,
      "target": 34962
    },
    {
      "buffer": 0,
      "byteLength": 8256,
      "byteOffset": 480,
      "target": 34963
    },
    {
      "buffer": 0,
      "byteLength": 4416,
      "byteOffset": 8736,
      "target": 34962
    },
    {
      "buffer": 0,
      "byteLength": 6336,
      "byteOffset": 13152,
      "target": 34963
    },
    {
      "buffer": 0,
      "byteLength": 4224,
      "byteOffset": 19488,
      "target": 34962
    },
    {
      "buffer": 0,
      "byteLength": 144,
      "byteOffset": 23712,
      "target": 34963
    },
    {
      "buffer": 0,
      "byteLength": 96,
      "byteOffset": 23856,
      "target": 34962
    },
    {
      "buffer": 0,
      "byteLength": 576,
      "byteOffset": 23952,
      "target": 34963
    },
    {
      "buffer": 0,
      "byteLength": 384,
      "byteOffset": 24528,
      "target": 34962
    },
    {
      "buffer": 0,
      "byteLength": 7056,
      "byteOffset": 24912,
      "target": 34963
    },
    {
      "buffer": 0,
      "byteLength": 3648,
      "byteOffset": 31968,
      "target": 34962
    },
    {
      "buffer": 0,
      "byteLength": 14112,
      "byteOffset": 35616,
      "target": 34963
    },
    {
      "buffer": 0,
      "byteLength": 9408,
      "byteOffset": 49728,
      "target": 34962
    }
  ],
  "buffers": [
    {
      "byteLength": 59136,
      "uri": "data:application/octet-stream;base64,"
    }
  ],
  "materials": [
    {
      "alphaCutoff": 0.5,
      "alphaMode": "OPAQUE",
      "doubleSided": false,
      "emissiveFactor": [
        0.0,
        0.0,
        0.0
      ],
      "name": "substrate",
      "pbrMetallicRoughness": {
        "baseColorFactor": [
          0.2,
          0.2,
          0.2,
          1.0
        ],
        "metallicFactor": 0.5,
        "roughnessFactor": 0.5
      }
    },
    {
      "alphaCutoff": 0.5,
      "alphaMode": "OPAQUE",
      "doubleSided": false,
      "emissiveFactor": [
        0.0,
        0.0,
        0.0
      ],
      "name": "nwell",
      "pbrMetallicRoughness": {
        "baseColorFactor": [
          0.4,
          0.4,
          0.4,
          1.0
        ],
        "metallicFactor": 0.5,
        "roughnessFactor": 0.5
      }
    },
    {
      "alphaCutoff": 0.5,
      "alphaMode": "OPAQUE",
      "doubleSided": false,
      "emissiveFactor": [
        0.0,
        0.0,
        0.0
      ],
      "name": "diff",
      "pbrMetallicRoughness": {
        "baseColorFactor": [
          0.9,
          0.9,
          0.9,
          1.0
        ],
        "metallicFactor": 0.5,
        "roughnessFactor": 0.5
      }
    },
    {
      "alphaCutoff": 0.5,
      "alphaMode": "OPAQUE",
      "doubleSided": false,
      "emissiveFactor": [
        0.0,
        0.0,
        0.0
      ],
      "name": "poly",
      "pbrMetallicRoughness": {
        "baseColorFactor": [
          0.75,
          0.35,
          0.46,
          1.0
        ],
        "metallicFactor": 0.5,
        "roughnessFactor": 0.5
      }
    },
    {
      "alphaCutoff": 0.5,
      "alphaMode": "OPAQUE",
      "doubleSided": false,
      "emissiveFactor": [
        0.0,
        0.0,
        0.0
      ],
      "name": "licon",
      "pbrMetallicRoughness": {
        "baseColorFactor": [
          0.2,
          0.2,
          0.2,
          1.0
        ],
        "metallicFactor": 0.5,
        "roughnessFactor": 0.5
      }
    },
    {
      "alphaCutoff": 0.5,
      "alphaMode": "OPAQUE",
      "doubleSided": false,
      "emissiveFactor": [
        0.0,
        0.0,
        0.0
      ],
      "name": "li1",
      "pbrMetallicRoughness": {
        "baseColorFactor": [
          1.0,
          0.81,
          0.55,
          1.0
        ],
        "metallicFactor": 0.5,
        "roughnessFactor": 0.5
      }
    },
    {
      "alphaCutoff": 0.5,
      "alphaMode": "OPAQUE",
      "doubleSided": false,
      "emissiveFactor": [
        0.0,
        0.0,
        0.0
      ],
      "name": "mcon",
      "pbrMetallicRoughness": {
        "baseColorFactor": [
          0.2,
          0.2,
          0.2,
          1.0
        ],
        "metallicFactor": 0.5,
        "roughnessFactor": 0.5
      }
    },
    {
      "alphaCutoff": 0.5,
      "alphaMode": "OPAQUE",
      "doubleSided": false,
      "emissiveFactor": [
        0.0,
        0.0,
        0.0
      ],
      "name": "met1",
      "pbrMetallicRoughness": {
        "baseColorFactor": [
          0.16,
          0.38,
          0.83,
          1.0
        ],
        "metallicFactor": 0.5,
        "roughnessFactor": 0.5
      }
    },
    {
      "alphaCutoff": 0.5,
      "alphaMode": "OPAQUE",
      "doubleSided": false,
      "emissiveFactor": [
        0.0,
        0.0,
        0.0
      ],
      "name": "via",
      "pbrMetallicRoughness": {
        "baseColorFactor": [
          0.2,
          0.2,
          0.2,
          1.0
        ],
        "metallicFactor": 0.5,
        "roughnessFactor": 0.5
      }
    },
    {
      "alphaCutoff": 0.5,
      "alphaMode": "OPAQUE",
      "doubleSided": false,
      "emissiveFactor": [
        0.0,
        0.0,
        0.0
      ],
      "name": "met2",
      "pbrMetallicRoughness": {
        "baseColorFactor": [
          0.65,
          0.75,
          0.9,
          1.0
        ],
        "metallicFactor": 0.5,
        "roughnessFactor": 0.5
      }
    },
    {
      "alphaCutoff": 0.5,
      "alphaMode": "OPAQUE",
      "doubleSided": false,
      "emissiveFactor": [
        0.0,
        0.0,
        0.0
      ],
      "name": "via2",
      "pbrMetallicRoughness": {
        "baseColorFactor": [
          0.2,
          0.2,
          0.2,
          1.0
        ],
        "metallicFactor": 0.5,
        "roughnessFactor": 0.5
      }
    },
    {
      "alphaCutoff": 0.5,
      "alphaMode": "OPAQUE",
      "doubleSided": false,
      "emissiveFactor": [
        0.0,
        0.0,
        0.0
      ],
      "name": "met3",
      "pbrMetallicRoughness": {
        "baseColorFactor": [
          0.2,
          0.62,
          0.86,
          1.0
        ],
        "metallicFactor": 0.5,
        "roughnessFactor": 0.5
      }
    },
    {
      "alphaCutoff": 0.5,
      "alphaMode": "OPAQUE",
      "doubleSided": false,
      "emissiveFactor": [
        0.0,
        0.0,
        0.0
      ],
      "name": "via3",
      "pbrMetallicRoughness": {
        "baseColorFactor": [
          0.2,
          0.2,
          0.2,
          1.0
        ],
        "metallicFactor": 0.5,
        "roughnessFactor": 0.5
      }
    },
    {
      "alphaCutoff": 0.5,
      "alphaMode": "OPAQUE",
      "doubleSided": false,
      "emissiveFactor": [
        0.0,
        0.0,
        0.0
      ],
      "name": "met4",
      "pbrMetallicRoughness": {
        "baseColorFactor": [
          0.15,
          0.11,
          0.38,
          1.0
        ],
        "metallicFactor": 0.5,
        "roughnessFactor": 0.5
      }
    },
    {
      "alphaCutoff": 0.5,
      "alphaMode": "OPAQUE",
      "doubleSided": false,
      "emissiveFactor": [
        0.0,
        0.0,
        0.0
      ],
      "name": "via4",
      "pbrMetallicRoughness": {
        "baseColorFactor": [
          0.2,
          0.2,
          0.2,
          1.0
        ],
        "metallicFactor": 0.5,
        "roughnessFactor": 0.5
      }
    },
    {
      "alphaCutoff": 0.5,
      "alphaMode": "OPAQUE",
      "doubleSided": false,
      "emissiveFactor": [
        0.0,
        0.0,
        0.0
      ],
      "name": "met5",
      "pbrMetallicRoughness": {
        "baseColorFactor": [
          0.4,
          0.4,
          0.4,
          1.0
        ],
        "metallicFactor": 0.5,
        "roughnessFactor": 0.5
      }
    }
  ],
  "meshes": [
    {
      "primitives": [
        {
          "attributes": {
            "POSITION": 1
          },
          "indices": 0,
          "material": 7,
          "mode": 4
        }
      ]
    },
    {
      "primitives": [
        {
          "attributes": {
            "POSITION": 3
          },
          "indices": 2,
          "material": 5,
          "mode": 4
        }
      ]
    },
    {
      "primitives": [
        {
          "attributes": {
            "POSITION": 5
          },
          "indices": 4,
          "material": 6,
          "mode": 4
        }
      ]
    },
    {
      "primitives": [
        {
          "attributes": {
            "POSITION": 7
          },
          "indices": 6,
          "material": 1,
          "mode": 4
        }
      ]
    },
    {
      "primitives": [
        {
          "attributes": {
            "POSITION": 9
          },
          "indices": 8,
          "material": 2,
          "mode": 4
        }
      ]
    },
    {
      "primitives": [
        {
          "attributes": {
            "POSITION": 11
          },
          "indices": 10,
          "material": 3,
          "mode": 4
        }
      ]
    },
    {
      "primitives": [
        {
          "attributes": {
            "POSITION": 13
          },
          "indices": 12,
          "material": 4,
          "mode": 4
        }
      ]
    }
  ],
  "nodes": [
    {
      "children": [
        1,
        2,
        3,
        4,
        5,
        6,
        7
      ],
      "name": "sky130_fd_sc_hd__o32ai_4"
    },
    {
      "mesh": 3,
      "name": "sky130_fd_sc_hd__o32ai_4_nwell"
    },
    {
      "mesh": 4,
      "name": "sky130_fd_sc_hd__o32ai_4_diff"
    },
    {
      "mesh": 5,
      "name": "sky130_fd_sc_hd__o32ai_4_poly"
    },
    {
      "mesh": 6,
      "name": "sky130_fd_sc_hd__o32ai_4_licon"
    },
    {
      "mesh": 1,
      "name": "sky130_fd_sc_hd__o32ai_4_li1"
    },
    {
      "mesh": 2,
      "name": "sky130_fd_sc_hd__o32ai_4_mcon"
    },
    {
      "mesh": 0,
      "name": "sky130_fd_sc_hd__o32ai_4_met1"
    }
  ],
  "scene": 0,
  "scenes": [
    {
      "nodes": [
        0
      ]
    }
  ]
}